<svg width="89" height="91" viewBox="0 0 89 91" fill="none" xmlns="http://www.w3.org/2000/svg">
<path d="M56.3595 0C42.7428 0 31.6413 11.1163 31.6413 24.7499C31.6413 38.3841 42.7434 49.4999 56.3595 49.4999C69.9761 49.4999 81.0776 38.3835 81.0776 24.7499C81.0776 11.1158 69.9763 0 56.3595 0ZM56.3595 5.94038C66.7693 5.94038 75.1454 14.3265 75.1454 24.7505C75.1454 35.1746 66.7693 43.5607 56.3595 43.5607C45.9488 43.5607 37.5727 35.1746 37.5727 24.7505C37.5727 14.3265 45.9488 5.94038 56.3595 5.94038ZM46.1627 10.8906C44.6096 10.9712 43.2696 12.4603 43.3508 14.0154C43.4313 15.5698 44.9185 16.9115 46.4716 16.8302H56.1424C56.5188 16.8302 57.2026 17.2186 57.842 17.8204H46.1626C44.6094 17.901 43.2694 19.3901 43.3506 20.9452C43.4311 22.5004 44.9184 23.8413 46.4715 23.76H57.8726C57.2256 24.3763 56.5234 24.7502 56.1424 24.7502C52.8483 24.688 49.3563 24.8484 46.1311 24.7195C45.0203 24.8384 44.0121 25.6414 43.645 26.6975C43.2785 27.7537 43.5721 29.0104 44.3694 29.7933L56.2343 41.6734C57.2976 42.8924 59.4113 42.9684 60.5587 41.8277C61.7071 40.687 61.6473 38.57 60.4376 37.4961L53.64 30.6897H56.143C60.2145 30.6897 63.6972 27.8013 64.8563 23.7598H66.2461C67.8131 23.782 69.2543 22.3589 69.2543 20.79C69.2543 19.221 67.8131 17.7978 66.2461 17.8202H64.8555C64.7597 17.487 64.6432 17.1462 64.5159 16.83H66.2461C67.8131 16.8522 69.2543 15.4291 69.2543 13.8602C69.2543 12.2912 67.8131 10.868 66.2461 10.8904H46.1615L46.1627 10.8906ZM26.6967 49.5001C22.5891 49.4847 12.154 49.6352 1.8844 53.6452C0.775884 54.0804 -0.0075983 55.2379 5.55888e-05 56.43V80.0972C0.00542194 81.8359 1.81693 83.3311 3.52261 83.0057C9.77976 81.829 15.7294 83.3043 22.5869 85.9142C22.6183 85.9257 22.6482 85.9334 22.6796 85.9449C44.768 95.0671 61.006 90.4698 80.1191 82.9751C80.1413 82.9651 80.159 82.9521 80.1812 82.9444C86.2772 80.7115 89.5454 76.2347 88.9253 71.8687C88.3028 67.4865 83.6211 64.4776 78.5745 65.3719C78.4809 65.388 78.3882 65.4087 78.2962 65.434C69.4157 67.8996 58.1508 76.1988 40.6626 69.394C39.7779 69.0187 38.7836 67.6485 38.6226 66.7634C38.5551 66.3926 38.5727 66.3205 38.5605 66.3297C42.6649 66.6605 46.8659 66.9929 50.3947 67.3199C55.4269 67.3629 59.1312 63.8435 59.3243 59.957C59.5167 56.07 56.4894 52.2059 51.8466 51.5104C51.8259 51.5004 51.806 51.4897 51.7853 51.4797C41.1853 50.0865 30.9196 49.5147 26.6963 49.5001L26.6967 49.5001ZM26.6967 55.4404C30.3573 55.4535 40.6859 56.0392 50.9831 57.3894C53.0928 57.7049 53.4653 58.8187 53.4241 59.6476C53.3835 60.4674 53.1888 61.3816 50.5194 61.3801C46.4816 61.1406 42.3487 60.5304 38.3456 60.3899C36.4229 60.5258 34.5331 61.516 33.5566 63.0504C32.5799 64.5856 32.5094 66.3049 32.7838 67.8149C33.3335 70.8338 35.2562 73.6472 38.4997 74.9305H38.5304C58.3186 82.6304 73.2888 73.0783 79.7495 71.2176C82.2317 70.82 82.8949 71.7879 83.0246 72.7029C83.1572 73.6355 82.6106 75.7648 78.0808 77.4053C78.0601 77.4153 78.0394 77.426 78.0187 77.436C59.0979 84.8586 45.4995 88.9546 24.8732 80.4058C24.8433 80.3958 24.8127 80.3858 24.7812 80.3758C18.613 78.0209 12.4402 76.4534 5.93323 76.8794V58.5951C14.4012 55.7236 23.0993 55.4265 26.6968 55.4394L26.6967 55.4404Z" fill="black"/>
</svg>
