<svg width="83" height="91" viewBox="0 0 83 91" fill="none" xmlns="http://www.w3.org/2000/svg">
<path d="M63.132 69.9037C62.0473 69.4331 60.8448 69.4179 59.7458 69.874L47.1385 75.0855C47.1385 75.0799 47.1417 75.0751 47.1417 75.0703C47.1417 72.9227 45.4614 71.1839 43.3178 71.1063L37.858 70.9003C36.0383 70.8305 34.2178 70.5139 32.4494 69.9551C30.1223 69.212 26.4267 68.2084 22.0434 67.628C16.9731 66.9554 12.14 69.3098 9.23328 71.1583C8.98798 70.6557 8.48296 70.3014 7.88733 70.3014L1.50708 70.3006C0.675784 70.3006 0 70.9772 0 71.8077V89.038C0 89.8693 0.676584 90.5451 1.50708 90.5451H7.88651C8.71781 90.5451 9.39359 89.8685 9.39359 89.038V88.9715C11.4593 88.533 15.6792 87.6696 17.4788 87.5382C20.5891 87.2993 27.2556 87.7001 36.2715 88.6228C40.3783 89.0492 44.4088 88.1891 47.9457 86.1706L63.4847 77.739C65.3966 76.7057 66.2535 74.3929 65.4816 72.3561C65.0551 71.2467 64.2238 70.3745 63.132 69.904L63.132 69.9037ZM6.37876 87.5309H3.0142V73.3162H6.37876V87.5309ZM62.0505 75.092L46.4828 83.538C43.4638 85.2623 40.0297 85.983 36.581 85.6302C30.0805 84.9608 21.4613 84.2401 17.2623 84.5311C15.4386 84.6666 11.6605 85.4193 9.39342 85.8939V74.6927C11.2941 73.2978 16.4839 69.9429 21.6448 70.6148C25.8109 71.1663 29.322 72.1218 31.5353 72.828C33.565 73.4678 35.6532 73.8317 37.7456 73.9086L43.2054 74.1147C43.7241 74.1331 44.1249 74.5524 44.1249 75.071C44.1249 75.5745 43.7914 76.0915 43.4195 76.1773C37.069 77.3781 28.9469 76.3047 28.8514 76.2959C28.0498 76.2037 27.2706 76.7625 27.1568 77.5866C27.0461 78.4106 27.6201 79.1674 28.4474 79.2812C28.8667 79.3421 37.0699 80.4267 43.9022 79.1529C43.9279 79.1489 43.9535 79.1497 43.9792 79.1449C43.9928 79.1417 44.004 79.1321 44.0185 79.1297C45.4149 78.8627 46.7561 78.5052 47.9545 78.009L60.8938 72.6629C61.2281 72.5194 61.6072 72.5234 61.9383 72.6701C62.2766 72.8168 62.5379 73.0894 62.6662 73.4308C62.9043 74.0585 62.6389 74.7721 62.0505 75.092Z" fill="black"/>
<path d="M81.4929 0H74.1315C73.3002 0 72.6244 0.674986 72.6244 1.50546V2.62856H56.2549C53.24 2.62856 50.3974 3.94886 48.4525 6.24882L45.262 10.0181H30.233C29.4017 10.0181 28.7259 10.6931 28.7259 11.5235V67.4538C28.7259 68.2851 29.4025 68.9609 30.233 68.9609H58.8138C59.6451 68.9609 60.3209 68.2843 60.3209 67.4538V26.1166C60.6038 26.1327 60.9213 26.1864 61.1882 26.1864C65.8393 26.1864 68.196 23.8553 69.1597 22.539H72.6236V23.1346C72.6236 23.9659 73.3002 24.6401 74.1307 24.6401H81.4921C82.3234 24.6401 82.9992 23.9651 82.9992 23.1346L83 1.50664C83 0.675342 82.3234 0.0011774 81.4929 0.0011774L81.4929 0ZM57.3058 65.9449H31.7397V13.0293H51.5424L48.4617 16.2648H40.0124C39.1811 16.2648 38.5054 16.9398 38.5054 17.7703C38.5054 19.0425 37.468 20.0798 36.1958 20.0798C35.3645 20.0798 34.6887 20.7548 34.6887 21.5853V57.3897C34.6887 58.221 35.3653 58.8952 36.1958 58.8952C37.468 58.8952 38.5054 59.9341 38.5054 61.2064C38.5054 62.0377 39.1819 62.7135 40.0124 62.7135H49.0324C49.8637 62.7135 50.5395 62.0369 50.5395 61.2064C50.5395 59.9342 51.5728 58.8952 52.849 58.8952C53.6803 58.8952 54.3561 58.2202 54.3561 57.3897V22.4472C55.2058 21.9205 56.066 21.2599 56.9406 20.3726C57.0408 20.3951 57.1923 20.4127 57.3046 20.4351L57.3058 65.9449ZM44.5246 50.3883C40.8259 50.3883 37.7043 45.3781 37.7043 39.4492C37.7043 33.5202 40.8259 28.51 44.5246 28.51C48.2202 28.51 51.3417 33.5202 51.3417 39.4492C51.3417 45.3781 48.2202 50.3883 44.5246 50.3883ZM51.3417 49.5514V56.1C49.6174 56.609 48.253 57.9734 47.7424 59.6976H41.3045C40.793 57.9733 39.4295 56.6089 37.7052 56.1V49.5506C39.4623 51.9338 41.8465 53.3993 44.5254 53.3993C47.2021 53.3993 49.5853 51.9347 51.3417 49.5514ZM44.5246 25.4998C41.8455 25.4998 39.4606 26.9652 37.7043 29.3485V22.8745C39.4287 22.3654 40.7931 21.0026 41.3037 19.2768H45.8328C45.6829 19.6624 45.634 20.0792 45.8224 20.4664C46.3186 21.4773 47.764 23.2738 50.0286 23.5919C50.2715 23.6247 50.5104 23.6432 50.7565 23.6432C50.9489 23.6432 51.1469 23.5839 51.3409 23.563V29.3483C49.5853 26.9651 47.2021 25.4998 44.5246 25.4998ZM72.6231 19.5269H68.3287C67.7587 19.5269 67.2256 19.8684 66.9715 20.3815C66.8994 20.5154 65.3282 23.4446 60.3204 23.099V20.63C61.4387 20.5563 62.6346 20.3174 63.7586 19.6881C65.7114 18.5995 66.9867 16.7132 67.5607 14.0791C67.7371 13.2662 67.2224 12.4654 66.4095 12.2882C65.5855 12.1022 64.7919 12.6281 64.6187 13.4394C64.2323 15.2094 63.4748 16.3918 62.3059 17.05C60.07 18.3053 56.9967 17.2728 56.963 17.2592C56.389 17.0644 55.7534 17.2223 55.3493 17.6712C53.4847 19.7306 51.7348 20.7583 50.4698 20.6108C49.9071 20.537 49.4622 20.2356 49.1391 19.9254L50.174 18.8384C50.1772 18.8352 50.1805 18.8319 50.1837 18.8287L59.3463 9.20358C59.9202 8.60075 59.8938 7.64842 59.2909 7.07444C58.6913 6.50127 57.739 6.52132 57.1618 7.12575L54.409 10.0189H49.2096L50.7535 8.1952C52.1251 6.57188 54.1292 5.64126 56.2544 5.64126H72.6239L72.6231 19.5269ZM79.9845 21.628H75.6388V21.0324L75.638 4.13548V3.01238H79.9837L79.9845 21.628Z" fill="black"/>
<path d="M35.2202 60.209C34.0386 60.209 33.0806 61.1669 33.0806 62.3486C33.0806 63.5302 34.0385 64.4882 35.2202 64.4882C36.4018 64.4882 37.3598 63.5302 37.3598 62.3486C37.3606 61.167 36.4026 60.209 35.2202 60.209Z" fill="black"/>
<path d="M55.9267 62.3496C55.9267 63.5312 54.9688 64.49 53.7863 64.49C52.6047 64.49 51.6467 63.5312 51.6467 62.3496C51.6467 61.168 52.6046 60.21 53.7863 60.21C54.9687 60.21 55.9267 61.1679 55.9267 62.3496Z" fill="black"/>
<path d="M35.2202 18.6891C36.4018 18.6891 37.3598 17.7312 37.3598 16.5495C37.3598 15.3679 36.4018 14.4099 35.2202 14.4099C34.0386 14.4099 33.0806 15.3679 33.0806 16.5495C33.0806 17.7311 34.0385 18.6891 35.2202 18.6891Z" fill="black"/>
</svg>
