<svg width="80" height="83" viewBox="0 0 80 83" fill="none" xmlns="http://www.w3.org/2000/svg">
<path d="M31.958 63.1582C33.4815 66.2694 34.285 69.7461 34.285 73.2064V80.004C34.285 81.5828 33.0067 82.861 31.4279 82.861C29.8491 82.861 28.5709 81.5827 28.5709 80.004V73.2064C28.5709 70.6108 27.9683 68.0054 26.8244 65.6697L18.7744 49.2235C18.4059 48.4732 17.4932 48.166 16.7539 48.5293C16.0539 48.8719 15.7245 49.7094 16.0066 50.4383L19.8236 60.2575C20.393 61.7278 19.6649 63.3857 18.1938 63.9579C16.7317 64.5243 15.0687 63.7992 14.4935 62.3281L10.6793 52.5089C10.0966 51.0091 10.0848 49.4199 10.4983 47.9563C10.3462 45.5497 9.5472 33.2853 8.91064 29.4209C8.82129 28.8921 8.26892 28.5125 7.70179 28.5798C7.12949 28.6425 6.69969 29.1255 6.70561 29.7015L5.71827 56.7994C5.63704 59.0207 6.40799 61.1578 7.88569 62.8178L16.4156 72.3891C16.8838 72.9097 17.1415 73.5876 17.1415 74.2884V80.0033C17.1415 81.5821 15.8633 82.8604 14.2845 82.8604C12.7057 82.8604 11.4274 81.5821 11.4274 80.0033V75.3775L3.62039 66.6186C1.1539 63.8538 -0.127261 60.2922 0.00998675 56.5903L0.993612 29.6191C0.963334 26.2244 3.58052 23.2809 7.08222 22.8968C10.6815 22.515 13.9713 24.9608 14.5496 28.4922C15.0207 31.3477 15.5479 38.0774 15.884 42.8472C19.0616 42.1597 22.4215 43.6647 23.908 46.713L31.958 63.1582Z" fill="black"/>
<path d="M79.0078 29.7481L79.99 56.5927C80.1273 60.293 78.8461 63.8532 76.3819 66.618L68.572 75.3769V80.0041C68.572 81.583 67.2937 82.8612 65.7149 82.8612C64.1361 82.8612 62.8579 81.5829 62.8579 80.0041V74.2893C62.8579 73.5892 63.1149 72.9113 63.5838 72.3892L72.1168 62.8179C73.5929 61.1579 74.3624 59.0208 74.2819 56.8025L73.2968 29.8294C73.2997 29.1249 72.87 28.6419 72.2976 28.5799C71.6973 28.5282 71.1759 28.8915 71.0917 29.4151C70.453 33.2847 69.6532 45.5549 69.5011 47.9571C69.9124 49.42 69.8999 51.0085 69.3172 52.5075L65.5053 62.3267C64.93 63.797 63.2728 64.52 61.8049 63.9565C60.3346 63.3842 59.6057 61.7271 60.1751 60.2561L63.9893 50.4369C64.2743 49.708 63.9443 48.8713 63.2442 48.5279C62.4991 48.1675 61.593 48.4777 61.2237 49.2206L53.1752 65.6699C52.0313 68.005 51.4287 70.611 51.4287 73.2066V80.0041C51.4287 81.5829 50.1505 82.8612 48.5717 82.8612C46.9929 82.8612 45.7146 81.5829 45.7146 80.0041V73.2066C45.7146 69.7461 46.5188 66.2703 48.0416 63.1584L56.0916 46.7121C57.5796 43.6675 60.9402 42.1633 64.1156 42.8499C64.4516 38.0803 64.9796 31.3476 65.453 28.4882C66.0283 24.9642 69.2893 22.5119 72.9173 22.8974C76.4184 23.2821 79.0354 26.2255 79.0082 29.748L79.0078 29.7481Z" fill="black"/>
<path d="M57.1428 40.002C58.7216 40.002 59.9998 38.723 59.9998 37.1449V18.7277L61.3416 19.5666C62.6856 20.4055 64.4476 19.9905 65.2791 18.6568C66.1165 17.3187 65.7088 15.5568 64.3722 14.7193L41.5146 0.43311C40.5879 -0.14437 39.4108 -0.14437 38.484 0.43311L15.6265 14.7193C14.2899 15.5568 13.8822 17.3187 14.7196 18.6568C15.5541 19.9949 17.3152 20.4033 18.6571 19.5666L19.9996 18.7277V37.1449C19.9996 38.723 21.2779 40.002 22.8567 40.002H57.144H57.1428ZM31.4268 20.0009V34.2871H25.7119V15.1557L39.9982 6.22549L54.2844 15.1557L54.2851 34.2871H48.5702V20.0002C48.5702 18.4221 47.292 17.1431 45.7132 17.1431H34.284C32.7052 17.1431 31.427 18.4221 31.427 20.0002L31.4268 20.0009ZM42.856 34.2879H37.1411V22.8587H42.856V34.2879Z" fill="black"/>
</svg>
