<svg width="114" height="83" viewBox="0 0 114 83" fill="none" xmlns="http://www.w3.org/2000/svg">
<path d="M34.9193 13.2484C34.9193 20.5657 28.9879 26.4979 21.6709 26.4979C14.3538 26.4979 8.42139 20.5657 8.42139 13.2484C8.42139 5.93106 14.3536 0 21.6709 0C28.9882 0 34.9193 5.93134 34.9193 13.2484Z" fill="black"/>
<path d="M78.757 38.2725L74.7236 54.4653L78.757 70.6582H114L105.903 38.2736L78.757 38.2725Z" fill="black"/>
<path d="M43.4271 50.051L35.3297 82.4356H78.6681L70.5718 50.051H43.4271Z" fill="black"/>
<path d="M70.2492 25.024C70.2492 32.3413 64.3179 38.2735 57.0008 38.2735C49.6838 38.2735 43.7513 32.3413 43.7513 25.024C43.7513 17.7067 49.6835 11.7756 57.0008 11.7756C64.3182 11.7756 70.2492 17.707 70.2492 25.024Z" fill="black"/>
<path d="M35.2419 38.2725H8.09629L0 70.6571H35.243L39.2764 54.4642L35.2419 38.2725Z" fill="black"/>
<path d="M105.579 13.2484C105.579 20.5657 99.647 26.4979 92.3297 26.4979C85.0135 26.4979 79.0813 20.5657 79.0813 13.2484C79.0813 5.93106 85.0135 0 92.3297 0C99.647 0 105.579 5.93134 105.579 13.2484Z" fill="black"/>
</svg>
